<?xml version="1.0" standalone="no"?><svg xmlns="http://www.w3.org/2000/svg" viewBox="0 0 1440 320"><path fill="#a2d9ff" fill-opacity="1" d="M0,32L10,58.7C20,85,40,139,60,165.3C80,192,100,192,120,170.7C140,149,160,107,180,122.7C200,139,220,213,240,208C260,203,280,117,300,106.7C320,96,340,160,360,192C380,224,400,224,420,208C440,192,460,160,480,128C500,96,520,64,540,48C560,32,580,32,600,32C620,32,640,32,660,74.7C680,117,700,203,720,234.7C740,267,760,245,780,250.7C800,256,820,288,840,277.3C860,267,880,213,900,197.3C920,181,940,203,960,186.7C980,171,1000,117,1020,112C1040,107,1060,149,1080,154.7C1100,160,1120,128,1140,138.7C1160,149,1180,203,1200,192C1220,181,1240,107,1260,90.7C1280,75,1300,117,1320,122.7C1340,128,1360,96,1380,112C1400,128,1420,192,1430,224L1440,256L1440,320L1430,320C1420,320,1400,320,1380,320C1360,320,1340,320,1320,320C1300,320,1280,320,1260,320C1240,320,1220,320,1200,320C1180,320,1160,320,1140,320C1120,320,1100,320,1080,320C1060,320,1040,320,1020,320C1000,320,980,320,960,320C940,320,920,320,900,320C880,320,860,320,840,320C820,320,800,320,780,320C760,320,740,320,720,320C700,320,680,320,660,320C640,320,620,320,600,320C580,320,560,320,540,320C520,320,500,320,480,320C460,320,440,320,420,320C400,320,380,320,360,320C340,320,320,320,300,320C280,320,260,320,240,320C220,320,200,320,180,320C160,320,140,320,120,320C100,320,80,320,60,320C40,320,20,320,10,320L0,320Z"></path></svg>